<svg width="167" height="31" viewBox="0 0 167 31" fill="none" xmlns="http://www.w3.org/2000/svg">
<g clip-path="url(#clip0_862_11194)">
<path d="M41.5761 1.04688H36.3984V29.9931H41.5761V1.04688Z" fill="#FF6F37"/>
<path d="M15.9206 0C11.5994 0 7.86215 1.51125 4.74776 4.53375C1.63337 7.55625 0.0761719 11.1987 0.0761719 15.3837C0.0761719 20.15 1.78909 24.0637 5.21492 27.0087C8.29037 29.6437 11.833 31 15.726 31C20.1251 31 23.9013 29.4888 27.0156 26.505C30.0911 23.5212 31.6872 19.84 31.6872 15.5775C31.6872 11.315 30.13 7.63375 27.0546 4.61125C23.9402 1.55 20.2418 0 15.9206 0ZM15.9206 5.15375C18.8404 5.15375 21.254 6.16125 23.3562 8.215C25.4584 10.2688 26.4706 12.6712 26.4706 15.5387C26.4706 18.4062 25.4585 20.77 23.3952 22.785C21.254 24.8387 18.7625 25.8462 15.726 25.8462C13.0787 25.8462 10.7819 24.955 8.64074 23.095C6.34388 21.1187 5.29277 18.6775 5.29277 15.3837C5.29277 12.5938 6.30495 10.2688 8.40716 8.215C10.5094 6.16125 12.962 5.15375 15.9206 5.15375Z" fill="black"/>
<path d="M53.6447 12.0129C52.1265 12.0129 51.854 13.3304 51.854 15.5779C51.854 17.8254 52.0875 19.1429 53.6447 19.1429C55.2409 19.1429 55.4744 17.8254 55.4744 15.5779C55.4744 13.3304 55.2019 12.0129 53.6447 12.0129ZM53.6447 23.6766C48.2724 23.6766 46.248 20.6154 46.248 15.6166C46.248 10.6179 48.2335 7.55664 53.6447 7.55664C59.056 7.55664 61.0803 10.6179 61.0803 15.6166C61.0803 20.6154 59.0171 23.6766 53.6447 23.6766Z" fill="black"/>
<path d="M69.0988 19.9179C69.0988 19.9179 69.7606 19.9954 70.2277 19.9954C71.7849 19.9954 71.8238 19.0266 71.8238 18.7941C71.8238 18.2129 71.4735 17.5154 70.5002 17.5154H69.0988V19.9179ZM70.1109 13.8341C71.3956 13.8341 71.5903 13.1366 71.5903 12.4779C71.5903 11.5866 71.0842 11.1991 70.1109 11.1991C69.7995 11.1991 69.3323 11.2379 69.0598 11.2379V13.8341H70.1109ZM74.7436 15.4229C76.4954 15.8104 77.4297 17.0504 77.4297 19.1429C77.4297 22.0879 75.3665 23.6379 69.7216 23.6379C66.6851 23.6379 64.6607 23.5604 63.6875 23.4054V7.78914C64.505 7.71164 67.853 7.55664 69.6048 7.55664C74.9382 7.55664 76.8458 9.18414 76.8458 11.5866C76.8458 13.1754 76.3786 14.8416 74.7825 15.3454V15.4229H74.7436Z" fill="black"/>
<path d="M84.9052 19.3753L84.9831 19.4916H87.9417V12.1291H86.3067C86.0342 16.7791 85.5281 18.8328 84.9052 19.3753ZM78.2871 26.7378V19.4528L79.2214 19.2978C80.7008 18.5616 81.4015 17.9803 81.8687 7.78906H93.353V19.3366L94.7544 19.4528L94.5987 26.7378H89.5768L89.3821 23.4441H82.8419L82.6083 26.7378H78.2871Z" fill="black"/>
<path d="M102.695 14.5703H96.1934V18.2516H102.695V14.5703Z" fill="black"/>
<path d="M110.56 7.78906V12.5166L110.365 15.5391L110.56 15.5778L114.686 7.78906H119.202V23.4441H113.752V19.6078L113.947 16.5853L113.752 16.5078L109.625 23.4441H105.148V7.78906H110.56Z" fill="black"/>
<path d="M133.528 12.0898V23.4436H128.233V19.6073H126.365V23.4436H121.07V12.0898H126.365V15.6161H128.233V12.0898H133.528Z" fill="black"/>
<path d="M146.415 19.6853C147.427 19.6853 148.011 19.5303 148.011 17.7478C148.011 15.9653 147.427 15.8491 146.454 15.8491H146.065V19.6853H146.415ZM140.887 15.8491C139.914 15.8491 139.33 15.9653 139.33 17.7478C139.33 19.5303 139.914 19.6853 140.926 19.6853H141.237V15.8491H140.887ZM147.194 23.6766H146.104V27.7453H141.159V23.6766H140.108C136.527 23.6766 134.658 21.3903 134.658 17.7866C134.658 14.2216 136.527 11.8966 140.069 11.8966H141.159V7.78906H146.104V11.8578H147.194C150.736 11.8578 152.605 14.2216 152.605 17.7478C152.644 21.3903 150.775 23.6766 147.194 23.6766Z" fill="black"/>
<path d="M159.806 16.159C158.989 16.159 158.794 16.6627 158.794 17.7477C158.794 18.8327 158.989 19.3365 159.806 19.3365C160.624 19.3365 160.857 18.8327 160.857 17.7477C160.857 16.6627 160.624 16.159 159.806 16.159ZM159.806 23.6765C155.757 23.6765 153.344 21.8165 153.344 17.7865C153.344 13.4465 156.341 11.8965 159.806 11.8965C163.271 11.8965 166.307 13.4465 166.307 17.7865C166.307 21.8165 163.894 23.6765 159.806 23.6765Z" fill="black"/>
</g>
<defs>
<clipPath id="clip0_862_11194">
<rect width="166.231" height="31" fill="white" transform="translate(0.0761719)"/>
</clipPath>
</defs>
</svg>
