<svg width="166" height="31" viewBox="0 0 166 31" fill="none" xmlns="http://www.w3.org/2000/svg">
<g clip-path="url(#clip0_865_13474)">
<path d="M41.442 1.04688H36.2715V29.9931H41.442V1.04688Z" fill="#FF6F37"/>
<path d="M15.8225 0C11.5073 0 7.77518 1.51125 4.66511 4.53375C1.55504 7.55625 0 11.1987 0 15.3837C0 20.15 1.71054 24.0637 5.13162 27.0087C8.20281 29.6437 11.7405 31 15.6281 31C20.0211 31 23.792 29.4887 26.9021 26.505C29.9733 23.5212 31.5672 19.84 31.5672 15.5775C31.5672 11.315 30.0122 7.63375 26.941 4.61125C23.8309 1.55 20.1377 0 15.8225 0ZM15.8225 5.15375C18.7382 5.15375 21.1485 6.16125 23.2478 8.215C25.3471 10.2688 26.3578 12.6712 26.3578 15.5387C26.3578 18.4062 25.3471 20.77 23.2867 22.785C21.1485 24.8387 18.6604 25.8462 15.6281 25.8462C12.9845 25.8462 10.6909 24.955 8.55269 23.095C6.25902 21.1187 5.20937 18.6775 5.20937 15.3837C5.20937 12.5937 6.22014 10.2688 8.31944 8.215C10.4187 6.16125 12.8679 5.15375 15.8225 5.15375Z" fill="white"/>
<path d="M53.4938 12.0129C51.9777 12.0129 51.7055 13.3304 51.7055 15.5779C51.7055 17.8254 51.9388 19.1429 53.4938 19.1429C55.0878 19.1429 55.321 17.8254 55.321 15.5779C55.321 13.3304 55.0489 12.0129 53.4938 12.0129ZM53.4938 23.6766C48.129 23.6766 46.1074 20.6154 46.1074 15.6166C46.1074 10.6179 48.0901 7.55664 53.4938 7.55664C58.8976 7.55664 60.9191 10.6179 60.9191 15.6166C60.9191 20.6154 58.8587 23.6766 53.4938 23.6766Z" fill="white"/>
<path d="M68.9272 19.9179C68.9272 19.9179 69.5881 19.9954 70.0546 19.9954C71.6096 19.9954 71.6485 19.0266 71.6485 18.7941C71.6485 18.2129 71.2986 17.5154 70.3267 17.5154H68.9272V19.9179ZM69.938 13.8341C71.2209 13.8341 71.4152 13.1366 71.4152 12.4779C71.4152 11.5866 70.9099 11.1991 69.938 11.1991C69.6269 11.1991 69.1604 11.2379 68.8883 11.2379V13.8341H69.938ZM74.5642 15.4229C76.3136 15.8104 77.2466 17.0504 77.2466 19.1429C77.2466 22.0879 75.1862 23.6379 69.5492 23.6379C66.5169 23.6379 64.4953 23.5604 63.5234 23.4054V7.78914C64.3398 7.71164 67.6832 7.55664 69.4326 7.55664C74.7586 7.55664 76.6635 9.18414 76.6635 11.5866C76.6635 13.1754 76.197 14.8416 74.6031 15.3454V15.4229H74.5642Z" fill="white"/>
<path d="M84.7105 19.3753L84.7882 19.4916H87.7428V12.1291H86.11C85.8379 16.7791 85.3325 18.8328 84.7105 19.3753ZM78.1016 26.7378V19.4528L79.0346 19.2978C80.5119 18.5616 81.2116 17.9803 81.6781 7.78906H93.1465V19.3366L94.5461 19.4528L94.3906 26.7378H89.3756L89.1812 23.4441H82.65L82.4168 26.7378H78.1016Z" fill="white"/>
<path d="M102.477 14.5703H95.9844V18.2516H102.477V14.5703Z" fill="white"/>
<path d="M110.33 7.78906V12.5166L110.135 15.5391L110.33 15.5778L114.45 7.78906H118.96V23.4441H113.517V19.6078L113.712 16.5853L113.517 16.5078L109.397 23.4441H104.926V7.78906H110.33Z" fill="white"/>
<path d="M133.266 12.0898V23.4436H127.979V19.6073H126.113V23.4436H120.826V12.0898H126.113V15.6161H127.979V12.0898H133.266Z" fill="white"/>
<path d="M146.135 19.6853C147.146 19.6853 147.729 19.5303 147.729 17.7478C147.729 15.9653 147.146 15.8491 146.174 15.8491H145.785V19.6853H146.135ZM140.615 15.8491C139.643 15.8491 139.06 15.9653 139.06 17.7478C139.06 19.5303 139.643 19.6853 140.654 19.6853H140.965V15.8491H140.615ZM146.913 23.6766H145.824V27.7453H140.887V23.6766H139.837C136.261 23.6766 134.395 21.3903 134.395 17.7866C134.395 14.2216 136.261 11.8966 139.798 11.8966H140.887V7.78906H145.824V11.8578H146.913C150.45 11.8578 152.316 14.2216 152.316 17.7478C152.355 21.3903 150.489 23.6766 146.913 23.6766Z" fill="white"/>
<path d="M159.508 16.159C158.692 16.159 158.497 16.6627 158.497 17.7477C158.497 18.8327 158.692 19.3365 159.508 19.3365C160.324 19.3365 160.558 18.8327 160.558 17.7477C160.558 16.6627 160.324 16.159 159.508 16.159ZM159.508 23.6765C155.465 23.6765 153.055 21.8165 153.055 17.7865C153.055 13.4465 156.048 11.8965 159.508 11.8965C162.968 11.8965 166 13.4465 166 17.7865C166 21.8165 163.59 23.6765 159.508 23.6765Z" fill="white"/>
</g>
<defs>
<clipPath id="clip0_865_13474">
<rect width="166" height="31" fill="white"/>
</clipPath>
</defs>
</svg>
